<svg width="237" height="66" viewBox="0 0 237 66" fill="none" xmlns="http://www.w3.org/2000/svg">
<path d="M194.917 53.6546C145.073 64.4193 38.4897 78.0254 10.9102 46.3321C-2.13397 31.7233 -9.13295 16.5164 23.3931 7.6704C44.2358 2.00186 81.3087 -1.05471 143.421 0.331835C275.362 3.27716 243.325 44.5172 194.917 53.6546Z" fill="#FF9B16"/>
<path d="M49.3424 37.0624C49.3676 37.6022 49.2885 38.0719 49.1051 38.4715C48.9281 38.8708 48.6802 39.2147 48.3613 39.5033C48.0423 39.7919 47.6691 40.0342 47.2416 40.2301C46.8202 40.4192 46.3777 40.5734 45.914 40.6928C45.4503 40.8122 44.9819 40.8992 44.5086 40.9538C44.0419 41.0082 43.6037 41.0449 43.194 41.064C42.7908 41.0828 42.3705 41.0861 41.9333 41.0739C41.5029 41.0679 41.0714 41.0391 40.6388 40.9876C40.2063 40.9361 39.7791 40.8615 39.3575 40.7638C38.9355 40.6597 38.5349 40.5252 38.1557 40.3604L37.5505 27.7968C37.9077 27.6302 38.2884 27.4789 38.6927 27.3427C39.0966 27.2001 39.5082 27.0799 39.9272 26.9821C40.3525 26.8776 40.7756 26.7959 41.1965 26.7372C41.6171 26.672 42.0258 26.6301 42.4225 26.6116C42.8842 26.5901 43.3505 26.5977 43.8215 26.6344C44.299 26.6708 44.7588 26.7471 45.2009 26.8634C45.643 26.9796 46.0578 27.1395 46.4453 27.343C46.8325 27.5401 47.1733 27.7914 47.4678 28.097C47.7688 28.4023 48.0072 28.7627 48.183 29.1782C48.3653 29.5933 48.4693 30.0773 48.4951 30.63C48.5121 30.9942 48.476 31.3381 48.3868 31.6616C48.2976 31.9851 48.1613 32.2782 47.978 32.541C47.7948 32.8037 47.5675 33.0326 47.2964 33.2277C47.0249 33.4164 46.7156 33.5611 46.3683 33.6621C46.7962 33.7529 47.1875 33.8976 47.5422 34.0962C47.9034 34.2944 48.2114 34.5407 48.4663 34.8352C48.7276 35.1293 48.9323 35.4652 49.0803 35.8428C49.2347 36.2202 49.3221 36.6267 49.3424 37.0624ZM44.1276 31.7331C44.1189 31.5445 44.0724 31.387 43.9883 31.2605C43.9039 31.1276 43.8012 31.0216 43.6802 30.9425C43.5657 30.8631 43.4392 30.8071 43.3009 30.7744C43.169 30.7415 43.051 30.7274 42.9469 30.7323C42.8169 30.7383 42.691 30.7638 42.5692 30.8085C42.4475 30.8533 42.3293 30.9045 42.2147 30.9619L42.2571 33.1303C42.4067 33.1233 42.5914 33.1017 42.8113 33.0653C43.0312 33.029 43.24 32.9639 43.4377 32.8699C43.6415 32.7692 43.811 32.6309 43.9462 32.4552C44.0811 32.2729 44.1416 32.0322 44.1276 31.7331ZM42.8907 34.9778C42.7021 34.9866 42.5209 35.0146 42.3471 35.0618L42.4118 37.2877C42.5103 37.3027 42.6055 37.3178 42.6974 37.3331C42.7956 37.3415 42.8902 37.3437 42.9812 37.3394C43.1178 37.333 43.2668 37.3131 43.4281 37.2795C43.5892 37.2394 43.7393 37.1737 43.8784 37.0825C44.0173 36.9848 44.1287 36.859 44.2128 36.7052C44.3034 36.5511 44.3429 36.3504 44.3314 36.1033C44.3199 35.8562 44.2617 35.6569 44.1569 35.5053C44.0585 35.3535 43.9391 35.2385 43.7986 35.1603C43.6578 35.0756 43.5055 35.0241 43.3417 35.0056C43.1776 34.9807 43.0273 34.9714 42.8907 34.9778ZM62.0177 26.1869C61.8318 28.4897 61.6876 30.7808 61.5853 33.0602C61.4827 35.3331 61.3907 37.6217 61.3091 39.9262L57.3232 40.4053L57.4287 38.8949C57.3056 39.0505 57.1589 39.1877 56.9884 39.3064C56.8245 39.4249 56.6466 39.5244 56.4549 39.605C56.2628 39.6792 56.0635 39.7373 55.8569 39.7796C55.65 39.8153 55.4521 39.8343 55.2632 39.8366C54.8207 39.8507 54.4005 39.7855 54.0027 39.6412C53.6046 39.4903 53.2366 39.2858 52.8987 39.0278C52.5605 38.7633 52.2529 38.4551 51.9758 38.103C51.6984 37.7445 51.4592 37.3678 51.2583 36.9731C51.0636 36.5716 50.9076 36.1617 50.7904 35.7435C50.6796 35.3251 50.615 34.9175 50.5965 34.5208C50.5692 33.9355 50.5508 33.3302 50.5412 32.705C50.5378 32.0729 50.5507 31.4401 50.5798 30.8066C50.6089 30.173 50.6546 29.5452 50.7168 28.9232C50.7856 28.3008 50.8783 27.7034 50.995 27.1309C51.7902 27.133 52.5886 27.1316 53.39 27.1268C54.1914 27.122 54.9885 27.0947 55.7813 27.0447C55.6581 27.6174 55.5351 28.1934 55.4122 28.7727C55.2955 29.3452 55.1921 29.9235 55.102 30.5078C55.0116 31.0855 54.9442 31.6655 54.8996 32.2476C54.8551 32.8297 54.8466 33.4167 54.8742 34.0085C54.8805 34.1451 54.8961 34.3399 54.921 34.5929C54.9458 34.8459 54.99 35.0948 55.0535 35.3395C55.1236 35.5839 55.2183 35.7978 55.3376 35.9813C55.4632 36.1579 55.63 36.2414 55.8381 36.2317C56.0853 36.2201 56.3015 36.1058 56.4869 35.8886C56.672 35.6649 56.831 35.3707 56.9639 35.006C57.0968 34.6414 57.2044 34.2225 57.2866 33.7494C57.3753 33.276 57.4436 32.784 57.4915 32.2734C57.5456 31.756 57.5833 31.2361 57.6046 30.7137C57.6258 30.1913 57.6356 29.7021 57.6339 29.2459C57.6384 28.783 57.6354 28.3693 57.6249 28.0048C57.6209 27.64 57.6143 27.3568 57.6049 27.1552C57.5988 27.0251 57.5896 26.8984 57.5774 26.7752C57.5651 26.6519 57.5494 26.5256 57.5304 26.3961C57.9537 26.3894 58.3736 26.3796 58.7901 26.3667C59.2067 26.3538 59.6263 26.3375 60.049 26.3178C60.3742 26.3026 60.6993 26.2875 61.0245 26.2723C61.3559 26.2503 61.6869 26.2219 62.0177 26.1869ZM75.2367 29.9113C75.2604 30.4185 75.2364 30.8824 75.1647 31.3029C75.0993 31.7165 74.9803 32.1001 74.8078 32.4536C74.6352 32.807 74.4062 33.1371 74.1207 33.4437C73.8352 33.7503 73.4873 34.0467 73.077 34.3331L75.5915 38.361L71.2418 39.4241L69.5458 35.3384L68.338 35.4339L68.3516 39.5001L64.1569 39.6957C64.1203 38.2114 64.0807 36.7338 64.0382 35.2628C64.0022 33.7915 63.9692 32.3136 63.9391 30.829C63.9172 30.0805 63.8957 29.3385 63.8744 28.6031C63.8532 27.8676 63.8446 27.125 63.8488 26.3753C64.2961 26.185 64.7383 26.0242 65.1754 25.893C65.6125 25.7619 66.0508 25.6567 66.4903 25.5776C66.936 25.4916 67.386 25.4283 67.8403 25.3875C68.3008 25.34 68.7717 25.305 69.253 25.2826C69.9943 25.248 70.7146 25.3187 71.4136 25.4947C72.1189 25.6639 72.7477 25.9409 73.3001 26.3257C73.8524 26.7106 74.3022 27.2012 74.6494 27.7977C75.003 28.3938 75.1988 29.0984 75.2367 29.9113ZM70.881 30.4272C70.8683 30.154 70.8176 29.9055 70.7289 29.6815C70.6468 29.4572 70.5271 29.2673 70.37 29.1117C70.219 28.9492 70.0309 28.8277 69.8055 28.7469C69.5864 28.6594 69.3304 28.6224 69.0378 28.6361C68.9077 28.6421 68.7814 28.6578 68.6587 28.6831C68.5358 28.7018 68.4165 28.7302 68.301 28.7682L68.3141 32.4043L68.5482 32.3934C68.8278 32.3804 69.109 32.3314 69.3919 32.2466C69.6812 32.1614 69.9362 32.0387 70.1568 31.8785C70.3839 31.718 70.5636 31.5174 70.6958 31.2766C70.8344 31.0355 70.8962 30.7524 70.881 30.4272ZM88.3514 29.2999C88.375 29.8072 88.351 30.271 88.2794 30.6915C88.2139 31.1051 88.095 31.4887 87.9224 31.8422C87.7499 32.1956 87.5209 32.5257 87.2354 32.8323C86.9499 33.1389 86.602 33.4353 86.1917 33.7217L88.7062 37.7496L84.3564 38.8127L82.6604 34.727L81.4526 34.8225L81.4662 38.8887L77.2716 39.0843C77.235 37.6 77.1954 36.1224 77.1529 34.6514C77.1169 33.1801 77.0838 31.7022 77.0537 30.2176C77.0319 29.4691 77.0103 28.7271 76.9891 27.9917C76.9678 27.2562 76.9593 26.5136 76.9634 25.7639C77.4108 25.5736 77.853 25.4128 78.2901 25.2817C78.7271 25.1505 79.1654 25.0453 79.6049 24.9662C80.0506 24.8802 80.5006 24.8169 80.955 24.7761C81.4155 24.7286 81.8864 24.6936 82.3676 24.6712C83.109 24.6366 83.8292 24.7073 84.5283 24.8833C85.2335 25.0525 85.8623 25.3295 86.4147 25.7143C86.9671 26.0992 87.4169 26.5898 87.764 27.1863C88.1177 27.7824 88.3135 28.487 88.3514 29.2999ZM83.9957 29.8158C83.9829 29.5427 83.9323 29.2941 83.8436 29.0701C83.7615 28.8458 83.6418 28.6559 83.4846 28.5003C83.3337 28.3379 83.1455 28.2163 82.9202 28.1355C82.701 28.048 82.4451 28.011 82.1525 28.0247C82.0224 28.0307 81.896 28.0464 81.7734 28.0717C81.6504 28.0905 81.5312 28.1188 81.4156 28.1568L81.4287 31.7929L81.6628 31.782C81.9425 31.769 82.2237 31.72 82.5065 31.6352C82.7958 31.55 83.0508 31.4273 83.2715 31.2671C83.4986 31.1066 83.6783 30.906 83.8104 30.6652C83.9491 30.4241 84.0108 30.141 83.9957 29.8158ZM94.9234 24.6529L94.8599 37.9711L90.7533 38.3776L89.7464 25.1679L94.9234 24.6529ZM107.052 24.0679L107.147 28.2086L104.246 28.4612L104.316 37.5302L100.21 37.9367L99.4171 28.9013L96.5174 29.1929L96.4198 24.5831L107.052 24.0679ZM120.762 29.7246C120.789 30.3164 120.748 30.8919 120.637 31.4511C120.526 32.0037 120.351 32.5267 120.114 33.0201C119.883 33.5132 119.591 33.97 119.239 34.3905C118.893 34.8041 118.496 35.1648 118.048 35.4725C117.606 35.7799 117.119 36.0274 116.587 36.2152C116.054 36.3964 115.486 36.5011 114.881 36.5293C114.296 36.5566 113.733 36.5079 113.193 36.3832C112.659 36.2582 112.155 36.0731 111.681 35.828C111.206 35.5764 110.772 35.2708 110.377 34.9111C109.988 34.5447 109.65 34.1369 109.362 33.6876C109.08 33.2314 108.852 32.7402 108.677 32.2139C108.509 31.6873 108.412 31.1346 108.385 30.5558C108.358 29.99 108.401 29.4341 108.512 28.8879C108.623 28.3353 108.795 27.8124 109.026 27.3193C109.263 26.826 109.555 26.3692 109.9 25.949C110.246 25.5288 110.636 25.1619 111.071 24.8484C111.513 24.5345 111.993 24.284 112.512 24.0968C113.031 23.9097 113.584 23.8025 114.169 23.7752C115.112 23.7312 115.977 23.8375 116.765 24.0941C117.559 24.3504 118.242 24.7389 118.813 25.2597C119.391 25.7738 119.848 26.4107 120.183 27.1707C120.525 27.9238 120.718 28.7751 120.762 29.7246ZM116.442 30.1802C116.429 29.9005 116.374 29.6326 116.278 29.3764C116.187 29.1134 116.059 28.8848 115.894 28.6904C115.728 28.4896 115.525 28.3329 115.285 28.2202C115.052 28.1008 114.785 28.048 114.486 28.062C114.18 28.0762 113.91 28.1442 113.674 28.266C113.439 28.3878 113.238 28.5503 113.072 28.7536C112.911 28.9501 112.792 29.1805 112.713 29.4449C112.633 29.7027 112.601 29.9748 112.614 30.2609C112.627 30.534 112.678 30.8054 112.769 31.0749C112.86 31.3444 112.988 31.586 113.155 31.7999C113.321 32.0137 113.521 32.1836 113.755 32.3096C113.996 32.4352 114.269 32.4909 114.575 32.4767C114.88 32.4624 115.151 32.3912 115.386 32.2629C115.627 32.1278 115.828 31.9555 115.987 31.746C116.147 31.5301 116.266 31.2866 116.344 31.0157C116.423 30.7449 116.456 30.4663 116.442 30.1802ZM126.025 34.954C126.038 35.2401 125.995 35.5093 125.896 35.7616C125.797 36.0139 125.658 36.2387 125.478 36.4361C125.304 36.6267 125.096 36.783 124.855 36.9051C124.612 37.0207 124.351 37.085 124.072 37.098C123.785 37.1114 123.516 37.0718 123.264 36.9792C123.012 36.8802 122.787 36.744 122.59 36.5707C122.4 36.3906 122.243 36.1796 122.121 35.9376C122.005 35.6953 121.941 35.4311 121.928 35.145C121.915 34.8653 121.954 34.5963 122.046 34.3378C122.145 34.079 122.281 33.8543 122.455 33.6637C122.635 33.4663 122.846 33.3066 123.088 33.1845C123.33 33.0625 123.594 32.9948 123.88 32.9814C124.159 32.9684 124.425 33.0114 124.678 33.1104C124.93 33.2094 125.151 33.349 125.342 33.5291C125.539 33.7024 125.699 33.9133 125.822 34.1618C125.944 34.4103 126.012 34.6743 126.025 34.954ZM138.716 27.3625C138.746 27.9934 138.677 28.557 138.512 29.0536C138.346 29.5501 138.106 29.9915 137.791 30.3776C137.483 30.757 137.114 31.0838 136.683 31.358C136.253 31.6258 135.787 31.8527 135.288 32.039C134.794 32.2184 134.279 32.3597 133.743 32.4629C133.207 32.5596 132.679 32.6234 132.159 32.6541L132.352 36.8098L127.807 37.0217C127.772 36.2803 127.738 35.5584 127.706 34.8561C127.679 34.1534 127.65 33.4574 127.618 32.768C127.592 32.0719 127.563 31.3726 127.53 30.6702C127.504 29.9676 127.476 29.2422 127.448 28.494C127.424 27.6999 127.39 26.9064 127.347 26.1133C127.303 25.3202 127.282 24.5195 127.284 23.7113C128.105 23.4253 128.928 23.2012 129.755 23.0388C130.582 22.8764 131.437 22.7746 132.322 22.7334C132.823 22.7101 133.325 22.729 133.83 22.7902C134.334 22.8449 134.818 22.9494 135.282 23.1038C135.752 23.2578 136.188 23.4591 136.591 23.7075C136.999 23.9492 137.355 24.2454 137.658 24.5963C137.962 24.9471 138.205 25.3529 138.39 25.8135C138.581 26.2739 138.69 26.7902 138.716 27.3625ZM134.4 27.8961C134.381 27.4734 134.235 27.151 133.964 26.929C133.699 26.7002 133.362 26.5954 132.952 26.6145C132.816 26.6209 132.673 26.6405 132.525 26.6735C132.383 26.6997 132.248 26.7321 132.119 26.7707L132.135 29.6246C132.226 29.6334 132.314 29.6358 132.399 29.6318C132.484 29.6279 132.571 29.6238 132.662 29.6195C132.897 29.6086 133.119 29.5592 133.33 29.4711C133.548 29.3828 133.737 29.2631 133.9 29.1122C134.062 28.9547 134.187 28.7761 134.276 28.5765C134.37 28.37 134.412 28.1432 134.4 27.8961ZM149.005 30.7152L148.797 35.0655L140.613 36.0923L140.276 22.1475L145.348 21.911L145.044 30.8998L149.005 30.7152ZM162.965 34.405L158.156 35.2549L157.468 33.0775L155.243 33.1812L154.858 35.4086L149.861 35.1528L153.137 21.9781L158.548 21.4521L162.965 34.405ZM156.977 30.1089L156.078 26.7487L155.514 30.1771L156.977 30.1089ZM172.639 21.4404L172.48 25.5734C172.289 25.5302 172.102 25.503 171.919 25.492C171.736 25.481 171.55 25.4799 171.362 25.4887C170.9 25.5102 170.46 25.5894 170.043 25.7261C169.632 25.8626 169.27 26.0587 168.956 26.3145C168.649 26.57 168.406 26.8876 168.228 27.2674C168.057 27.6404 167.982 28.0772 168.006 28.578C168.023 28.9422 168.09 29.2584 168.206 29.5267C168.329 29.7882 168.493 30.0054 168.696 30.1784C168.906 30.3446 169.153 30.4667 169.437 30.5447C169.727 30.6224 170.045 30.6533 170.389 30.6372C170.63 30.626 170.876 30.5917 171.128 30.5343C171.379 30.4705 171.629 30.3904 171.879 30.294C172.129 30.1977 172.368 30.0887 172.597 29.9673C172.826 29.8458 173.038 29.7186 173.234 29.5856L173.292 34.1778C173.044 34.3196 172.777 34.4494 172.489 34.5671C172.201 34.6783 171.902 34.777 171.593 34.8631C171.291 34.9553 170.985 35.0283 170.675 35.0819C170.371 35.1351 170.079 35.1683 169.8 35.1813C168.876 35.2244 168.026 35.0913 167.249 34.7821C166.478 34.4726 165.806 34.0346 165.232 33.4683C164.665 32.8952 164.213 32.2221 163.877 31.4492C163.541 30.6762 163.353 29.8442 163.311 28.9533C163.261 27.8867 163.365 26.8847 163.621 25.9473C163.883 25.0096 164.291 24.1889 164.845 23.4853C165.405 22.7748 166.109 22.2076 166.956 21.7836C167.809 21.3528 168.798 21.1111 169.923 21.0587C170.372 21.0377 170.829 21.0523 171.294 21.1023C171.759 21.1523 172.208 21.265 172.639 21.4404ZM185.715 26.286C185.741 26.8518 185.729 27.4194 185.677 27.9888C184.568 28.1122 183.468 28.2808 182.377 28.4946C181.285 28.7019 180.193 28.9092 179.101 29.1166C179.292 29.5769 179.573 29.9386 179.944 30.2015C180.321 30.4642 180.76 30.5839 181.261 30.5605C181.521 30.5484 181.802 30.4864 182.103 30.3746C182.41 30.2625 182.714 30.1278 183.013 29.9705C183.311 29.8067 183.597 29.6337 183.868 29.4516C184.14 29.2694 184.374 29.1054 184.569 28.9594L184.307 33.41C184.063 33.617 183.794 33.7957 183.501 33.9462C183.215 34.0964 182.914 34.2212 182.6 34.3206C182.285 34.42 181.966 34.4968 181.642 34.551C181.319 34.6052 181.001 34.6395 180.689 34.6541C180.045 34.6841 179.453 34.6238 178.911 34.473C178.37 34.3223 177.874 34.101 177.424 33.8092C176.98 33.5105 176.585 33.1541 176.24 32.7401C175.895 32.326 175.603 31.8704 175.365 31.3731C175.126 30.8758 174.939 30.3469 174.802 29.7863C174.665 29.2256 174.583 28.6559 174.556 28.0771C174.528 27.4723 174.555 26.8649 174.637 26.2549C174.72 25.645 174.858 25.0552 175.053 24.4856C175.255 23.9157 175.514 23.3855 175.83 22.895C176.152 22.3977 176.532 21.9596 176.971 21.5806C177.409 21.2017 177.91 20.8981 178.473 20.6699C179.042 20.4413 179.675 20.3108 180.371 20.2783C180.95 20.2513 181.48 20.3081 181.963 20.4485C182.451 20.5822 182.887 20.7834 183.271 21.0523C183.662 21.3143 184.002 21.6341 184.294 22.0116C184.592 22.3887 184.839 22.8074 185.037 23.2674C185.24 23.7207 185.397 24.2054 185.505 24.7218C185.62 25.2313 185.69 25.7527 185.715 26.286ZM181.789 25.9606C181.781 25.7785 181.753 25.5941 181.705 25.4073C181.657 25.214 181.584 25.0415 181.485 24.8896C181.394 24.7375 181.274 24.616 181.126 24.5251C180.978 24.4277 180.797 24.384 180.582 24.394C180.322 24.4062 180.095 24.4885 179.9 24.6409C179.711 24.7866 179.55 24.9701 179.417 25.1913C179.284 25.4061 179.177 25.6392 179.098 25.8906C179.018 26.1419 178.961 26.3727 178.925 26.583L181.799 26.1752L181.789 25.9606Z" fill="white"/>
</svg>
